<?xml version="1.0" encoding="iso-8859-1"?>
<!-- Generator: Adobe Illustrator 19.0.0, SVG Export Plug-In . SVG Version: 6.00 Build 0)  -->
<svg version="1.1" id="Capa_1" xmlns="http://www.w3.org/2000/svg" xmlns:xlink="http://www.w3.org/1999/xlink" x="0px" y="0px"
	 viewBox="0 0 56.594 56.594" style="enable-background:new 0 0 56.594 56.594;" xml:space="preserve">
<path style="fill:#E6E6E6;" d="M11.28,45.398l-0.888,11.035C34.913,50.57,54.949,28.506,56.566,3.016l0.027-2.856l-2.846,0.037
	C28.183,1.82,5.784,21.686,0,46.306L11.28,45.398z"/>
<path style="fill:#8697CB;" d="M35.38,22.374c-0.256,0-0.512-0.098-0.707-0.293c-0.391-0.391-0.391-1.023,0-1.414L55.161,0.179
	l-1.413,0.018c-0.734,0.047-1.465,0.112-2.194,0.188c-0.474,0.05-0.945,0.114-1.416,0.177c-0.223,0.029-0.447,0.055-0.669,0.087
	c-0.615,0.09-1.228,0.191-1.838,0.302c-0.057,0.01-0.114,0.02-0.171,0.03c-0.666,0.123-1.33,0.257-1.99,0.403c0,0,0,0-0.001,0
	L1.277,45.577c-0.233,0.233-0.049,0.63,0.279,0.603l9.724-0.782l-0.796,9.889c-0.026,0.328,0.371,0.512,0.604,0.279l43.86-43.86
	c0.035-0.148,0.187-0.291,0.424-0.431c0.604-2.701,1.016-5.457,1.194-8.258l0.014-1.428L36.087,22.081
	C35.892,22.276,35.636,22.374,35.38,22.374z"/>
<path style="fill:#F0C419;" d="M55.161,0.179L34.673,20.667c-0.391,0.391-0.391,1.023,0,1.414c0.195,0.195,0.451,0.293,0.707,0.293
	s0.512-0.098,0.707-0.293L56.58,1.588l0.014-1.428L55.161,0.179z"/>
<path style="fill:#48A0DC;" d="M27.594,26.16h-13c-0.552,0-1-0.448-1-1s0.448-1,1-1h13c0.552,0,1,0.448,1,1
	S28.146,26.16,27.594,26.16z"/>
<path style="fill:#81CCB8;" d="M30.594,31.16h-19c-0.552,0-1-0.448-1-1s0.448-1,1-1h19c0.552,0,1,0.448,1,1
	S31.146,31.16,30.594,31.16z"/>
<path style="fill:#E64C3C;" d="M32.594,38.16h-11c-0.552,0-1-0.448-1-1s0.448-1,1-1h11c0.552,0,1,0.448,1,1
	S33.146,38.16,32.594,38.16z"/>
<path style="fill:#F0C419;" d="M27.594,42.16h-13c-0.552,0-1-0.448-1-1s0.448-1,1-1h13c0.552,0,1,0.448,1,1
	S28.146,42.16,27.594,42.16z"/>
<g>
</g>
<g>
</g>
<g>
</g>
<g>
</g>
<g>
</g>
<g>
</g>
<g>
</g>
<g>
</g>
<g>
</g>
<g>
</g>
<g>
</g>
<g>
</g>
<g>
</g>
<g>
</g>
<g>
</g>
</svg>
